<svg width="31" height="30" viewBox="0 0 31 30" fill="none" xmlns="http://www.w3.org/2000/svg">
<path d="M3.24838 16.3922C3.24825 15.5187 3.47509 14.6602 3.90665 13.9008C4.33821 13.1413 4.95969 12.5071 5.71017 12.0601V8.9161C4.81325 9.22567 3.97937 9.69413 3.24838 10.2991V3.806C3.24838 3.42975 3.17428 3.05719 3.03029 2.70958C2.88631 2.36197 2.67527 2.04613 2.40922 1.78008C2.14317 1.51403 1.82733 1.303 1.47972 1.15901C1.13211 1.01503 0.759549 0.940918 0.383301 0.940918V16.4006C0.383314 18.267 1.04361 20.0732 2.24732 21.4996C3.45103 22.926 5.12055 23.8805 6.96039 24.1943C6.29497 23.159 5.88172 21.982 5.75386 20.7579C4.99034 20.3135 4.35698 19.6763 3.91726 18.9101C3.47753 18.1439 3.24687 17.2756 3.24838 16.3922Z" fill="#003466"/>
<path d="M16.1521 15.5638C15.9519 13.6705 15.0754 11.913 13.6835 10.614C12.2916 9.31504 10.4778 8.56182 8.5752 8.49268V11.3594C9.84168 11.4309 11.0347 11.9772 11.9162 12.8893C12.7977 13.8014 13.303 15.0124 13.3312 16.2805C13.3594 17.5487 12.9085 18.7809 12.0684 19.7314C11.2283 20.6818 10.0607 21.2805 8.79869 21.4082C9.11331 22.4258 9.74217 23.3177 10.595 23.9557C12.3527 23.4215 13.8692 22.2913 14.8835 20.7596C15.8978 19.2279 16.3464 17.3906 16.1521 15.5638Z" fill="#003466"/>
<path d="M20.99 19.3597C20.9708 19.3639 20.9508 19.3639 20.9317 19.3595C20.9125 19.3552 20.8945 19.3466 20.8791 19.3345L20.4758 19.0169C20.4604 19.0049 20.4479 18.9896 20.4392 18.9721C20.4304 18.9547 20.4257 18.9355 20.4253 18.916V18.4018C20.425 18.3821 20.4292 18.3626 20.4377 18.3449C20.4462 18.3271 20.4586 18.3115 20.4741 18.2993L20.8723 17.9767C20.8877 17.9642 20.9056 17.9554 20.9247 17.9507C20.9439 17.9461 20.9639 17.9458 20.9832 17.9498L21.2975 18.0187C21.1841 17.563 21.0306 17.1182 20.8387 16.6895L20.6371 16.8307C20.6213 16.8422 20.6031 16.8499 20.5838 16.8531C20.5646 16.8564 20.5448 16.855 20.5262 16.8491L20.0338 16.7063C20.0147 16.7006 19.9971 16.6907 19.9822 16.6773C19.9674 16.6639 19.9558 16.6474 19.9481 16.629L19.7532 16.1551C19.7446 16.1373 19.7401 16.1178 19.7401 16.098C19.7401 16.0782 19.7446 16.0587 19.7532 16.0409L20.0036 15.5922C20.0129 15.5751 20.0261 15.5603 20.0422 15.5492C20.0582 15.5381 20.0767 15.531 20.096 15.5283L20.1766 15.5149C19.8768 15.0687 19.5322 14.6543 19.1482 14.2781L19.0558 14.426C19.045 14.4433 19.0306 14.458 19.0134 14.4691C18.9963 14.4801 18.9769 14.4872 18.9567 14.4899L18.4273 14.5487C18.4072 14.5508 18.3867 14.5484 18.3676 14.5418C18.3484 14.5351 18.3309 14.5242 18.3164 14.51L17.9417 14.1336C17.927 14.1195 17.9158 14.1021 17.9091 14.0828C17.9024 14.0635 17.9003 14.0429 17.9031 14.0227L17.9619 13.4951C17.9642 13.4749 17.971 13.4556 17.9818 13.4385C17.9925 13.4213 18.007 13.4068 18.024 13.3959L18.0509 13.3791C17.9367 13.3018 17.8207 13.2262 17.7014 13.1556L17.7989 13.3993C17.8084 13.4189 17.8133 13.4405 17.8133 13.4623C17.8133 13.4841 17.8084 13.5057 17.7989 13.5253L17.5166 14.0177C17.5057 14.0368 17.4908 14.0532 17.4727 14.0657C17.4547 14.0782 17.4341 14.0865 17.4124 14.0899L16.8511 14.1756C16.8296 14.1789 16.8076 14.1774 16.7867 14.1713C16.7658 14.1652 16.7465 14.1547 16.7301 14.1403L16.3117 13.7538C16.2958 13.7393 16.2834 13.7212 16.2756 13.7011C16.2677 13.681 16.2645 13.6594 16.2664 13.6379L16.3067 13.0699C16.3082 13.0482 16.3145 13.0271 16.3253 13.0082C16.336 12.9893 16.3509 12.973 16.3689 12.9607L16.7856 12.675C16.198 12.4182 15.5812 12.2343 14.9489 12.1272C15.6158 13.1619 16.0291 14.3392 16.1554 15.5636C16.9971 16.0567 17.6781 16.7827 18.1165 17.6541C18.1157 17.6457 18.1157 17.6372 18.1165 17.6288L18.2307 17.2239C18.2348 17.2085 18.2424 17.1942 18.2529 17.1823C18.2634 17.1703 18.2765 17.161 18.2912 17.155L18.6794 16.9869C18.6939 16.9803 18.7097 16.9768 18.7256 16.9768C18.7416 16.9768 18.7573 16.9803 18.7718 16.9869L19.1415 17.1869C19.1553 17.195 19.1673 17.2059 19.1766 17.2189C19.1858 17.2319 19.1922 17.2468 19.1953 17.2625L19.2692 17.6759C19.272 17.6917 19.2712 17.7079 19.2669 17.7233C19.2625 17.7388 19.2547 17.753 19.244 17.765L18.9668 18.0809C18.9562 18.0932 18.9431 18.1029 18.9282 18.1093C18.9133 18.1157 18.8972 18.1186 18.8811 18.1178L18.461 18.0977C18.4447 18.0966 18.429 18.092 18.4147 18.0841C18.4005 18.0763 18.3882 18.0654 18.3786 18.0523L18.1719 17.765C18.5367 18.5373 18.6992 19.3897 18.6443 20.2421C18.5893 21.0945 18.3186 21.919 17.8577 22.6381L18.2761 22.5625C18.2929 22.5595 18.3102 22.5602 18.3268 22.5645C18.3433 22.5689 18.3587 22.5768 18.3719 22.5877L18.708 22.8851C18.7212 22.8965 18.7317 22.9107 18.7387 22.9267C18.7457 22.9427 18.749 22.9601 18.7483 22.9776L18.7281 23.4296C18.7274 23.447 18.7228 23.464 18.7146 23.4794C18.7065 23.4948 18.695 23.5082 18.6811 23.5186L18.3164 23.7842C18.3026 23.7949 18.2863 23.8021 18.2691 23.8053C18.2519 23.8085 18.2341 23.8076 18.2173 23.8026L17.7804 23.6833C17.7636 23.6789 17.7481 23.6706 17.735 23.6593C17.7219 23.6479 17.7116 23.6337 17.7048 23.6178L17.5351 23.1994C17.5276 23.1836 17.5237 23.1664 17.5237 23.149C17.5237 23.1315 17.5276 23.1143 17.5351 23.0985L17.5636 23.0465C17.1725 23.5399 16.6927 23.956 16.1487 24.2732L16.3369 24.4311C16.3518 24.4433 16.3636 24.4587 16.3714 24.4762C16.3793 24.4937 16.383 24.5128 16.3823 24.5319L16.3705 25.0361C16.3698 25.0554 16.3648 25.0744 16.3558 25.0916C16.3468 25.1087 16.334 25.1236 16.3184 25.1352L15.9168 25.4393C15.9015 25.451 15.8836 25.459 15.8647 25.4628C15.8458 25.4666 15.8263 25.466 15.8076 25.4612L15.3186 25.3368C15.2998 25.3325 15.2823 25.3239 15.2674 25.3116C15.2526 25.2994 15.2407 25.2839 15.2329 25.2663L15.0262 24.8058C15.0199 24.7903 15.0159 24.7738 15.0145 24.7571C13.7444 25.124 12.3811 24.9774 11.2181 24.3487C10.0552 23.7201 9.18569 22.6598 8.79697 21.3963C8.57673 20.6832 8.51757 19.93 8.62378 19.1913C8.72999 18.4525 8.99892 17.7466 9.41114 17.1244C9.82337 16.5022 10.3686 15.9793 11.0075 15.5934C11.6464 15.2076 12.363 14.9684 13.1055 14.8932C12.7906 13.8761 12.1625 12.9846 11.3108 12.3457C10.3099 12.6502 9.37943 13.1506 8.57348 13.8177V7.33471C8.57348 6.57707 8.27251 5.85046 7.73678 5.31473C7.20104 4.779 6.47444 4.47803 5.7168 4.47803V19.8386C5.7168 19.847 5.7168 19.8554 5.7168 19.8655C5.7168 19.8755 5.7168 19.9007 5.7168 19.9192C5.71693 20.196 5.73151 20.4725 5.76049 20.7477C5.88038 21.873 6.24017 22.9595 6.81559 23.934C7.391 24.9085 8.16867 25.7483 9.09615 26.3968C10.0236 27.0453 11.0794 27.4874 12.1922 27.6932C13.305 27.8991 14.449 27.864 15.5471 27.5903L15.3892 27.2407C15.3825 27.2274 15.3791 27.2128 15.3791 27.1979C15.3791 27.183 15.3825 27.1683 15.3892 27.155L15.5673 26.8089C15.5739 26.7954 15.5836 26.7837 15.5955 26.7746C15.6075 26.7656 15.6214 26.7595 15.6362 26.7568L16.0177 26.6795C16.0324 26.6762 16.0477 26.6765 16.0623 26.6803C16.0769 26.6841 16.0904 26.6913 16.1017 26.7013L16.4008 26.9517C16.4118 26.9617 16.4206 26.9739 16.4267 26.9875C16.4328 27.0011 16.436 27.0158 16.4361 27.0307L16.4277 27.313C16.9049 27.1338 17.3635 26.9087 17.7972 26.6408C17.7786 26.6303 17.763 26.6153 17.7518 26.5971L17.4813 26.1602C17.4707 26.1437 17.4641 26.1249 17.462 26.1053C17.46 26.0858 17.4626 26.066 17.4695 26.0477L17.6376 25.5637C17.6442 25.5453 17.6549 25.5286 17.6688 25.5149C17.6828 25.5013 17.6997 25.4909 17.7182 25.4847L18.2039 25.3167C18.2224 25.3101 18.2422 25.3079 18.2617 25.3102C18.2812 25.3125 18.3 25.3194 18.3164 25.3301L18.7449 25.6023C18.7615 25.6128 18.7756 25.6268 18.7861 25.6434C18.7965 25.6599 18.8032 25.6787 18.8054 25.6981L18.8239 25.8662C19.297 25.4489 19.7199 24.978 20.0842 24.463L19.9532 24.4765C19.9448 24.4772 19.9364 24.476 19.9286 24.4731C19.9208 24.4702 19.9137 24.4656 19.9078 24.4597L19.7582 24.3051C19.7521 24.2994 19.7476 24.2922 19.7449 24.2843C19.7423 24.2764 19.7417 24.2679 19.7431 24.2597L19.7683 24.0463C19.7698 24.0381 19.7729 24.0303 19.7775 24.0233C19.7822 24.0164 19.7882 24.0105 19.7952 24.006L19.9784 23.8951C19.9855 23.8909 19.9936 23.8888 20.0019 23.8888C20.0101 23.8888 20.0183 23.8909 20.0254 23.8951L20.2287 23.969C20.2365 23.9718 20.2435 23.9762 20.2493 23.982C20.2551 23.9878 20.2596 23.9949 20.2623 24.0026L20.306 24.1337C20.4057 23.9757 20.4998 23.8144 20.5883 23.6497C20.5652 23.6556 20.5409 23.6556 20.5178 23.6497L20.0254 23.5069C20.0063 23.5012 19.9887 23.4913 19.9738 23.4779C19.959 23.4645 19.9474 23.448 19.9397 23.4296L19.7532 22.9507C19.7446 22.9329 19.7401 22.9133 19.7401 22.8935C19.7401 22.8737 19.7446 22.8542 19.7532 22.8364L20.0036 22.3877C20.0129 22.3706 20.0261 22.3559 20.0422 22.3448C20.0582 22.3337 20.0767 22.3265 20.096 22.3239L20.6001 22.2399C20.6194 22.2367 20.6392 22.2377 20.6581 22.2429C20.6769 22.2481 20.6944 22.2574 20.7093 22.2701L21.0572 22.5843C21.0992 22.465 21.1395 22.3457 21.1765 22.2247L21.0941 22.2331C21.0858 22.2338 21.0774 22.2327 21.0696 22.2298C21.0618 22.2269 21.0546 22.2223 21.0488 22.2163L20.8992 22.0634C20.8933 22.0576 20.8888 22.0505 20.8861 22.0426C20.8835 22.0347 20.8828 22.0263 20.8841 22.0181L20.9093 21.8046C20.9106 21.7964 20.9136 21.7885 20.9183 21.7815C20.9229 21.7745 20.929 21.7687 20.9362 21.7643L21.1194 21.6517C21.1268 21.6485 21.1348 21.6468 21.1429 21.6468C21.151 21.6468 21.159 21.6485 21.1664 21.6517L21.316 21.7055C21.4499 21.1218 21.5176 20.5248 21.5176 19.926C21.5176 19.6952 21.5075 19.4683 21.4874 19.2454L20.99 19.3597ZM20.5715 19.4622C20.5841 19.452 20.5988 19.4448 20.6145 19.4411C20.6302 19.4373 20.6465 19.437 20.6623 19.4403L21.0824 19.5327C21.0986 19.5363 21.1138 19.5434 21.1269 19.5536C21.14 19.5637 21.1506 19.5767 21.158 19.5916L21.3462 19.978C21.3532 19.9927 21.3569 20.0088 21.3569 20.0251C21.3569 20.0414 21.3532 20.0575 21.3462 20.0722L21.1614 20.4603C21.1546 20.4752 21.1446 20.4883 21.1321 20.4988C21.1196 20.5092 21.1049 20.5168 21.0891 20.5208L20.6707 20.6183C20.6548 20.6222 20.6382 20.6224 20.6221 20.6189C20.6061 20.6154 20.5911 20.6083 20.5783 20.5981L20.2422 20.3326C20.2291 20.3229 20.2185 20.3102 20.2112 20.2956C20.2039 20.281 20.2001 20.2649 20.2002 20.2486V19.8184C20.2003 19.8021 20.2039 19.7859 20.2109 19.7711C20.2178 19.7563 20.228 19.7432 20.2405 19.7327L20.5715 19.4622ZM19.9498 16.8827C19.9637 16.872 19.9797 16.8643 19.9968 16.8602C20.0139 16.8561 20.0317 16.8558 20.0489 16.8592L20.4959 16.9584C20.5129 16.9622 20.5287 16.9698 20.5424 16.9806C20.556 16.9913 20.5671 17.005 20.5749 17.0205L20.7765 17.4322C20.784 17.448 20.7879 17.4652 20.7879 17.4827C20.7879 17.5001 20.784 17.5173 20.7765 17.5331L20.5799 17.9464C20.5726 17.9621 20.5618 17.976 20.5484 17.987C20.5351 17.9981 20.5194 18.006 20.5026 18.0103L20.0557 18.1162C20.0388 18.1198 20.0214 18.1197 20.0045 18.1159C19.9877 18.1122 19.9719 18.1048 19.9582 18.0943L19.5969 17.8103C19.5833 17.7995 19.5723 17.7857 19.5647 17.7699C19.5571 17.7542 19.5532 17.737 19.5532 17.7196V17.2625C19.553 17.245 19.5568 17.2277 19.5643 17.212C19.5719 17.1962 19.5831 17.1825 19.5969 17.1718L19.9498 16.8827ZM16.9536 15.6174C16.9332 15.6104 16.9146 15.5986 16.8994 15.5832C16.8843 15.5677 16.8729 15.549 16.8663 15.5283L16.6848 14.9889C16.678 14.9684 16.6759 14.9466 16.6785 14.9251C16.6811 14.9036 16.6884 14.8829 16.6999 14.8646L17.0091 14.3874C17.0205 14.369 17.0359 14.3535 17.0543 14.3421C17.0727 14.3307 17.0934 14.3238 17.115 14.3218L17.6813 14.2647C17.7028 14.2624 17.7245 14.2651 17.7448 14.2723C17.7652 14.2796 17.7837 14.2913 17.7989 14.3067L18.1971 14.7133C18.2121 14.7291 18.2235 14.7479 18.2305 14.7685C18.2374 14.7892 18.2398 14.811 18.2375 14.8327L18.1669 15.3973C18.1639 15.4189 18.1562 15.4396 18.1443 15.4579C18.1324 15.4762 18.1166 15.4917 18.098 15.5031L17.6124 15.8056C17.5941 15.8173 17.5733 15.8245 17.5518 15.8269C17.5302 15.8292 17.5084 15.8265 17.488 15.8191L16.9536 15.6174ZM18.7449 16.6458C18.7442 16.6632 18.7396 16.6802 18.7314 16.6956C18.7233 16.711 18.7118 16.7244 18.6979 16.7349L18.3332 17.0021C18.319 17.0121 18.3028 17.0189 18.2856 17.0218C18.2684 17.0247 18.2508 17.0237 18.2341 17.0189L17.7972 16.8996C17.7804 16.8951 17.7649 16.8869 17.7518 16.8755C17.7387 16.8641 17.7284 16.85 17.7216 16.834L17.5435 16.419C17.536 16.4032 17.5321 16.386 17.5321 16.3685C17.5321 16.3511 17.536 16.3339 17.5435 16.3181L17.7569 15.9199C17.7649 15.9042 17.7766 15.8908 17.7909 15.8805C17.8053 15.8703 17.8218 15.8636 17.8392 15.8611L18.2845 15.7787C18.3015 15.7756 18.3189 15.7764 18.3355 15.781C18.3521 15.7857 18.3675 15.7941 18.3803 15.8056L18.7164 16.1014C18.7296 16.1127 18.7401 16.127 18.7471 16.143C18.7541 16.159 18.7574 16.1763 18.7567 16.1938L18.7449 16.6458ZM18.4727 15.6376C18.4581 15.6243 18.4467 15.6079 18.4394 15.5895C18.4322 15.5712 18.4292 15.5514 18.4307 15.5317L18.466 15.0192C18.4675 14.9994 18.4734 14.9803 18.4833 14.9631C18.4932 14.946 18.5068 14.9313 18.5231 14.92L18.9466 14.6293C18.9626 14.6184 18.9809 14.6112 19.0001 14.6083C19.0193 14.6054 19.0389 14.6068 19.0575 14.6125L19.5499 14.7621C19.5687 14.7679 19.5861 14.7779 19.6006 14.7912C19.6151 14.8046 19.6265 14.8211 19.6339 14.8394L19.8221 15.3166C19.8295 15.3347 19.8327 15.3544 19.8312 15.3739C19.8297 15.3934 19.8237 15.4124 19.8137 15.4292L19.5599 15.8745C19.5501 15.8917 19.5365 15.9065 19.5202 15.9178C19.504 15.9291 19.4854 15.9367 19.4658 15.94L18.9617 16.0173C18.9423 16.0206 18.9224 16.0194 18.9035 16.0138C18.8845 16.0083 18.8671 15.9986 18.8525 15.9854L18.4727 15.6376ZM19.1802 17.0323C19.1669 17.0332 19.1536 17.0312 19.1412 17.0266C19.1287 17.022 19.1174 17.0147 19.1079 17.0054L18.8643 16.7567C18.8552 16.7468 18.8484 16.7351 18.8444 16.7223C18.8403 16.7096 18.8391 16.6961 18.8407 16.6828L18.8827 16.3383C18.8842 16.3249 18.8888 16.312 18.896 16.3006C18.9033 16.2892 18.9132 16.2797 18.9247 16.2728L19.2222 16.0913C19.2341 16.0859 19.247 16.0832 19.26 16.0832C19.273 16.0832 19.2859 16.0859 19.2978 16.0913L19.6255 16.2106C19.6379 16.2154 19.6491 16.2229 19.6584 16.2324C19.6677 16.242 19.6748 16.2535 19.6792 16.266L19.7902 16.6021C19.7942 16.6149 19.7956 16.6283 19.7941 16.6417C19.7927 16.655 19.7885 16.6678 19.7818 16.6794L19.5851 16.9584C19.5778 16.9695 19.5682 16.9788 19.5569 16.9858C19.5455 16.9928 19.5328 16.9972 19.5196 16.9987L19.1802 17.0323ZM18.6374 18.953L18.7617 18.3985C18.7658 18.377 18.775 18.3568 18.7884 18.3396C18.8019 18.3223 18.8192 18.3085 18.839 18.2993L19.3432 18.0489C19.3625 18.0395 19.3838 18.0345 19.4053 18.0345C19.4269 18.0345 19.4482 18.0395 19.4675 18.0489L19.9817 18.2926C20.0014 18.3019 20.0187 18.3154 20.0323 18.3323C20.046 18.3492 20.0557 18.3689 20.0607 18.3901L20.1918 18.9446C20.1967 18.9658 20.1968 18.9877 20.1922 19.009C20.1875 19.0302 20.1782 19.0501 20.1649 19.0673L19.812 19.5143C19.7985 19.5312 19.7814 19.5448 19.7619 19.5541C19.7424 19.5634 19.721 19.5682 19.6994 19.568H19.1314C19.1096 19.5678 19.0881 19.5629 19.0684 19.5536C19.0487 19.5444 19.0312 19.5309 19.0172 19.5143L18.6609 19.0723C18.649 19.0554 18.6407 19.0362 18.6367 19.016C18.6326 18.9957 18.6329 18.9748 18.6374 18.9547V18.953ZM20.0893 20.6183L19.8154 21.0417C19.8048 21.0578 19.791 21.0713 19.7747 21.0815C19.7585 21.0916 19.7403 21.0981 19.7213 21.1006L19.2171 21.151C19.198 21.1528 19.1787 21.1503 19.1606 21.1436C19.1426 21.1369 19.1263 21.1262 19.113 21.1123L18.7601 20.751C18.7466 20.7375 18.7364 20.7211 18.7303 20.703C18.7242 20.685 18.7223 20.6658 18.7248 20.6468L18.787 20.1427C18.7894 20.1235 18.796 20.1051 18.8065 20.0888C18.817 20.0725 18.831 20.0588 18.8474 20.0486L19.2776 19.7848C19.2941 19.7747 19.3126 19.7684 19.3317 19.7664C19.3509 19.7643 19.3703 19.7666 19.3885 19.773L19.8624 19.9411C19.8805 19.9474 19.8969 19.9578 19.9103 19.9715C19.9237 19.9852 19.9338 20.0018 19.9397 20.0201L20.1077 20.499C20.1154 20.519 20.1177 20.5407 20.1144 20.5619C20.1112 20.5831 20.1025 20.6031 20.0893 20.62V20.6183ZM17.1368 26.2779L16.831 26.5803C16.8196 26.5921 16.8056 26.601 16.7901 26.6063C16.7746 26.6115 16.7581 26.613 16.7419 26.6106L16.3151 26.5602C16.2987 26.5585 16.2829 26.5531 16.2689 26.5444C16.2549 26.5356 16.2431 26.5238 16.2344 26.5098L16.0093 26.1434C16.0001 26.1297 15.9945 26.114 15.9927 26.0976C15.9909 26.0812 15.9932 26.0647 15.9992 26.0493L16.1437 25.646C16.1486 25.6302 16.1573 25.6159 16.169 25.6042C16.1807 25.5925 16.1951 25.5838 16.2109 25.5788L16.6176 25.4393C16.6331 25.4341 16.6497 25.4324 16.6659 25.4345C16.6822 25.4365 16.6979 25.4422 16.7117 25.4511L17.0729 25.6813C17.087 25.69 17.0988 25.7018 17.1076 25.7158C17.1163 25.7298 17.1217 25.7456 17.1234 25.762L17.1687 26.1888C17.1708 26.2054 17.169 26.2222 17.1635 26.2379C17.1579 26.2537 17.1488 26.2679 17.1368 26.2795V26.2779ZM17.9585 24.4294L17.7535 24.8999C17.746 24.9181 17.7343 24.9342 17.7194 24.9471C17.7045 24.9599 17.6869 24.9691 17.6678 24.9739L17.1721 25.1083C17.1531 25.1132 17.1333 25.1137 17.1142 25.11C17.095 25.1062 17.0769 25.0982 17.0612 25.0865L16.6478 24.7823C16.6319 24.7706 16.6188 24.7554 16.6095 24.738C16.6002 24.7205 16.5949 24.7012 16.594 24.6815L16.5739 24.169C16.5729 24.1493 16.5765 24.1296 16.5843 24.1115C16.5922 24.0935 16.6041 24.0775 16.6192 24.0648L17.0091 23.7287C17.0241 23.7163 17.0417 23.7073 17.0606 23.7024C17.0794 23.6975 17.0991 23.6967 17.1183 23.7001L17.6224 23.7959C17.642 23.7992 17.6605 23.8069 17.6766 23.8186C17.6926 23.8303 17.7057 23.8455 17.7149 23.8631L17.9552 24.3168C17.9658 24.3351 17.9717 24.3558 17.9723 24.3769C17.9729 24.398 17.9682 24.419 17.9585 24.4378V24.4294ZM19.3785 24.7806L19.0525 25.1016C19.0399 25.1139 19.0249 25.1233 19.0083 25.1291C18.9918 25.1349 18.9741 25.137 18.9567 25.1352L18.5013 25.0797C18.4841 25.078 18.4675 25.0722 18.4529 25.0628C18.4383 25.0535 18.4261 25.0409 18.4173 25.026L18.1753 24.6361C18.1662 24.6214 18.1606 24.6049 18.1589 24.5877C18.1571 24.5705 18.1593 24.5532 18.1652 24.537L18.3181 24.1051C18.3241 24.0887 18.3336 24.0738 18.3462 24.0615C18.3587 24.0493 18.3738 24.0401 18.3904 24.0345L18.8239 23.8867C18.8405 23.8806 18.8582 23.8785 18.8757 23.8805C18.8932 23.8826 18.91 23.8887 18.9247 23.8984L19.3096 24.1438C19.3245 24.153 19.3371 24.1655 19.3464 24.1803C19.3558 24.1952 19.3615 24.212 19.3633 24.2295L19.4121 24.6848C19.4152 24.7036 19.4138 24.7229 19.4079 24.741C19.4021 24.7591 19.392 24.7756 19.3785 24.789V24.7806ZM19.7902 23.3758C19.7942 23.3886 19.7956 23.402 19.7941 23.4154C19.7927 23.4287 19.7885 23.4415 19.7818 23.4531L19.5851 23.7539C19.5778 23.765 19.5682 23.7744 19.5569 23.7814C19.5455 23.7883 19.5328 23.7927 19.5196 23.7942L19.1734 23.8278C19.1603 23.8294 19.1469 23.8279 19.1344 23.8236C19.1219 23.8192 19.1105 23.812 19.1012 23.8026L18.8575 23.5539C18.8485 23.5441 18.8417 23.5323 18.8376 23.5196C18.8336 23.5068 18.8323 23.4933 18.834 23.48L18.876 23.1338C18.8777 23.1207 18.8824 23.1081 18.8897 23.0971C18.8969 23.086 18.9066 23.0767 18.918 23.07L19.2155 22.8885C19.2272 22.8827 19.2402 22.8797 19.2533 22.8797C19.2664 22.8797 19.2793 22.8827 19.2911 22.8885L19.6188 23.0078C19.6312 23.0126 19.6424 23.0201 19.6517 23.0296C19.661 23.0392 19.6681 23.0507 19.6725 23.0633L19.7902 23.3758ZM19.8137 22.218L19.5599 22.6633C19.5503 22.6805 19.5367 22.6952 19.5204 22.7063C19.5041 22.7174 19.4854 22.7245 19.4658 22.7272L18.9617 22.8062C18.9422 22.8094 18.9221 22.8081 18.9031 22.8023C18.8842 22.7964 18.8668 22.7862 18.8525 22.7726L18.4761 22.4247C18.4614 22.4119 18.4499 22.3957 18.4426 22.3776C18.4353 22.3595 18.4324 22.34 18.4341 22.3205L18.4694 21.808C18.4709 21.7883 18.4768 21.7691 18.4867 21.752C18.4966 21.7348 18.5102 21.7201 18.5265 21.7089L18.95 21.4181C18.966 21.4072 18.9843 21.4 19.0035 21.3971C19.0227 21.3942 19.0423 21.3956 19.0609 21.4013L19.5532 21.5509C19.5721 21.5567 19.5894 21.5667 19.604 21.5801C19.6185 21.5934 19.6299 21.6099 19.6372 21.6282L19.8254 22.1054C19.8337 22.125 19.8369 22.1463 19.8349 22.1674C19.8328 22.1885 19.8255 22.2088 19.8137 22.2264V22.218ZM20.8673 21.566L20.6556 21.8937C20.6478 21.9063 20.6373 21.917 20.6248 21.9249C20.6122 21.9328 20.598 21.9376 20.5833 21.9391L20.1951 21.9777C20.1803 21.9793 20.1652 21.9774 20.1512 21.9722C20.1372 21.9669 20.1246 21.9585 20.1145 21.9475L19.8406 21.6685C19.8306 21.6578 19.823 21.645 19.8184 21.6311C19.8137 21.6172 19.8121 21.6025 19.8137 21.5879L19.8624 21.1997C19.8642 21.1849 19.8694 21.1706 19.8775 21.1581C19.8857 21.1456 19.8966 21.1351 19.9095 21.1274L20.2455 20.9241C20.2584 20.9166 20.2727 20.9119 20.2875 20.9105C20.3023 20.909 20.3172 20.9108 20.3312 20.9157L20.6976 21.0485C20.7116 21.0537 20.7244 21.062 20.7348 21.0727C20.7453 21.0835 20.7532 21.0964 20.7581 21.1106L20.8824 21.4803C20.8877 21.4961 20.8891 21.5128 20.8865 21.5292C20.8838 21.5456 20.8772 21.5611 20.8673 21.5744V21.566ZM21.4302 20.9762L21.3126 21.1577C21.3082 21.1646 21.3022 21.1705 21.2953 21.1748C21.2883 21.1792 21.2804 21.1819 21.2723 21.1829L21.0572 21.2047C21.0491 21.2053 21.041 21.2041 21.0335 21.2012C21.0259 21.1983 21.0191 21.1938 21.0135 21.1879L20.8622 21.0333C20.8566 21.0276 20.8524 21.0208 20.8498 21.0132C20.8471 21.0056 20.8462 20.9976 20.8471 20.9896L20.874 20.7746C20.875 20.7666 20.8777 20.759 20.8821 20.7523C20.8865 20.7456 20.8923 20.74 20.8992 20.7359L21.0841 20.6233C21.0914 20.6196 21.0994 20.6177 21.1076 20.6177C21.1158 20.6177 21.1238 20.6196 21.1311 20.6233L21.3328 20.6973C21.3408 20.6995 21.3481 20.7038 21.3539 20.7097C21.3598 20.7156 21.3641 20.7229 21.3664 20.7309L21.4353 20.9342C21.4389 20.9422 21.4406 20.9509 21.4403 20.9596C21.44 20.9683 21.4377 20.9769 21.4336 20.9846L21.4302 20.9762Z" fill="#1971BD"/>
<path d="M19.3426 13.9691C19.3534 13.9521 19.3602 13.9328 19.3625 13.9127C19.3649 13.8926 19.3626 13.8723 19.356 13.8532L19.1796 13.3491C19.1728 13.3299 19.1619 13.3125 19.1477 13.298C19.1335 13.2834 19.1163 13.2722 19.0972 13.2651L18.5931 13.097C18.574 13.0904 18.5537 13.0882 18.5336 13.0905C18.5135 13.0928 18.4942 13.0996 18.4772 13.1105L18.0537 13.376C18.4455 13.6423 18.8128 13.9432 19.151 14.275L19.3426 13.9691Z" fill="#1971BD"/>
<path d="M21.7964 18.5835L21.5712 18.1231C21.5622 18.1054 21.5495 18.0898 21.5338 18.0776C21.5181 18.0654 21.4999 18.0569 21.4805 18.0525L21.2939 18.0122C21.3925 18.413 21.4594 18.8209 21.4939 19.2322C21.5123 19.2275 21.5295 19.2187 21.544 19.2065C21.5586 19.1943 21.5702 19.1789 21.5779 19.1616L21.7981 18.6978C21.8066 18.6799 21.8108 18.6603 21.8105 18.6405C21.8102 18.6207 21.8054 18.6012 21.7964 18.5835Z" fill="#1971BD"/>
<path d="M21.0538 16.5284C21.0701 16.5173 21.0837 16.5026 21.0933 16.4854C21.1029 16.4682 21.1084 16.4489 21.1092 16.4292L21.1412 15.9251C21.1444 15.9032 21.1421 15.8807 21.1345 15.8599C21.1269 15.8391 21.1141 15.8205 21.0975 15.8058L20.716 15.4697C20.7014 15.4564 20.684 15.4466 20.6651 15.4411C20.6462 15.4356 20.6262 15.4344 20.6068 15.4378L20.1816 15.5084C20.4327 15.8811 20.6514 16.2746 20.8353 16.6847L21.0538 16.5284Z" fill="#1971BD"/>
<path d="M20.6336 23.6195L21.0537 23.3237C21.0699 23.3125 21.0833 23.2977 21.0929 23.2806C21.1025 23.2634 21.1081 23.2442 21.1091 23.2246L21.1411 22.7205C21.1422 22.7007 21.1388 22.6809 21.1312 22.6626C21.1237 22.6443 21.1121 22.6279 21.0974 22.6146L21.0638 22.5844C20.9335 22.9495 20.7762 23.3045 20.5933 23.6464C20.6083 23.6401 20.622 23.631 20.6336 23.6195Z" fill="#1971BD"/>
<path d="M20.1714 24.4483C20.1796 24.4478 20.1877 24.4452 20.1947 24.4408C20.2017 24.4364 20.2076 24.4303 20.2117 24.4231L20.3293 24.2433C20.333 24.236 20.3349 24.228 20.3349 24.2198C20.3349 24.2116 20.333 24.2036 20.3293 24.1963L20.3058 24.124C20.233 24.2361 20.159 24.3481 20.084 24.4601L20.1714 24.4483Z" fill="#1971BD"/>
<path d="M21.3143 22.2031C21.3224 22.2025 21.3302 22.2 21.3372 22.196C21.3442 22.1919 21.3501 22.1863 21.3547 22.1796L21.4723 21.9981C21.476 21.9908 21.4779 21.9828 21.4779 21.9746C21.4779 21.9664 21.476 21.9584 21.4723 21.9511L21.4051 21.7461C21.3985 21.731 21.3865 21.7191 21.3715 21.7125L21.3177 21.694C21.2774 21.862 21.2303 22.0452 21.1782 22.2166L21.3143 22.2031Z" fill="#1971BD"/>
<path d="M15.9536 24.1055C15.9388 24.0931 15.9216 24.0842 15.903 24.0792C15.8844 24.0743 15.8649 24.0735 15.846 24.0769L15.352 24.1777C15.3329 24.1811 15.3148 24.189 15.2994 24.2006C15.2839 24.2123 15.2714 24.2275 15.2629 24.245L15.0327 24.6936C15.0228 24.7135 15.0176 24.7353 15.0176 24.7575C15.4141 24.6427 15.7951 24.4796 16.1518 24.2718L15.9536 24.1055Z" fill="#1971BD"/>
<path d="M17.8445 26.646L18.3486 26.7065C18.3682 26.7091 18.3881 26.7071 18.4068 26.7007C18.4254 26.6943 18.4423 26.6836 18.4562 26.6696L18.8225 26.3083C18.8362 26.2945 18.8467 26.2779 18.8531 26.2596C18.8595 26.2412 18.8617 26.2217 18.8595 26.2024L18.8242 25.8663C18.5004 26.1498 18.1543 26.4066 17.7891 26.6343C17.8065 26.6422 17.8254 26.6463 17.8445 26.646Z" fill="#1971BD"/>
<path d="M15.5524 27.5905C15.5579 27.6044 15.5668 27.6168 15.5782 27.6265C15.5896 27.6361 15.6033 27.6428 15.6179 27.646L15.996 27.7434C16.0104 27.747 16.0254 27.7473 16.0399 27.7444C16.0544 27.7415 16.0681 27.7354 16.0801 27.7266L16.3909 27.4914C16.403 27.4823 16.4129 27.4707 16.4199 27.4573C16.4269 27.4439 16.4307 27.4291 16.4313 27.4141V27.3065C16.1424 27.4163 15.8472 27.5089 15.5474 27.5838L15.5524 27.5905Z" fill="#1971BD"/>
<path d="M17.5939 12.8634C17.5858 12.8431 17.5733 12.8249 17.5574 12.8101C17.5414 12.7953 17.5223 12.7842 17.5014 12.7777L16.9587 12.6097C16.9379 12.6029 16.9159 12.6011 16.8943 12.6043C16.8727 12.6075 16.8522 12.6157 16.8343 12.6282L16.7822 12.6635C17.1004 12.8035 17.4091 12.964 17.7064 13.1441L17.5939 12.8634Z" fill="#1971BD"/>
<path d="M25.5741 15.3855L24.9439 15.1654L24.3776 15.52L24.3037 16.1837L24.7759 16.6559L25.4397 16.582L25.7959 16.0157L25.5741 15.3855Z" fill="#1971BD"/>
<path d="M20.2725 13.527L20.4993 14.2042L21.1715 14.4496L21.7815 14.0765L21.8705 13.3674L21.3714 12.8549L20.659 12.9271L20.2725 13.527Z" fill="#1971BD"/>
<path d="M23.7876 22.5443L24.0128 23.0669L24.5623 23.2164L25.021 22.882L25.0462 22.3124L24.616 21.9393L24.0565 22.0418L23.7876 22.5443Z" fill="#1971BD"/>
<path d="M22.2217 17.0963L22.6032 17.4475C22.6176 17.4611 22.6349 17.4712 22.6539 17.477C22.6728 17.4829 22.6928 17.4843 22.7124 17.4811L23.2249 17.4021C23.2445 17.3988 23.2631 17.3912 23.2793 17.3799C23.2956 17.3686 23.3092 17.3538 23.319 17.3366L23.5761 16.8879C23.5861 16.8708 23.592 16.8516 23.5935 16.8318C23.5949 16.812 23.5919 16.7921 23.5845 16.7737L23.393 16.2914C23.3856 16.2731 23.3742 16.2566 23.3597 16.2433C23.3452 16.2299 23.3278 16.2199 23.309 16.2141L22.8048 16.0629C22.786 16.0571 22.7661 16.0557 22.7466 16.0586C22.7272 16.0615 22.7086 16.0687 22.6922 16.0797L22.2738 16.3737C22.2572 16.3847 22.2434 16.3993 22.2335 16.4166C22.2236 16.4338 22.2178 16.453 22.2167 16.4729L22.1797 16.9904C22.1779 17.0101 22.1808 17.03 22.1881 17.0484C22.1954 17.0668 22.2069 17.0832 22.2217 17.0963Z" fill="#1971BD"/>
<path d="M22.3325 20.7664L22.7812 21.3226L23.4954 21.3175L23.9373 20.7563L23.7743 20.0606L23.1273 19.7548L22.4854 20.069L22.3325 20.7664Z" fill="#1971BD"/>
<path opacity="0.4" d="M28.6559 21.7259L29.0794 22.0586L29.6053 21.9342L29.8356 21.4469L29.5986 20.963L29.071 20.8453L28.6509 21.1865L28.6559 21.7259Z" fill="#1971BD"/>
<path d="M27.1489 16.8323L27.574 17.165L28.1 17.0407L28.3302 16.5517L28.0916 16.0677L27.5656 15.9518L27.1455 16.2912L27.1489 16.8323Z" fill="#1971BD"/>
<path opacity="0.4" d="M29.2505 12.3914L29.6941 12.8451L30.3243 12.7812L30.6687 12.2469L30.4654 11.6469L29.8706 11.4302L29.3295 11.7612L29.2505 12.3914Z" fill="#1971BD"/>
<path d="M25.6899 19.8656L26.1436 20.2202L26.7032 20.0891L26.9485 19.5682L26.6948 19.0523L26.1335 18.928L25.6865 19.2909L25.6899 19.8656Z" fill="#1971BD"/>
<path opacity="0.9" d="M21.7277 10.9323L22.2352 11.3306L22.8636 11.181L23.1392 10.5979L22.8552 10.0182L22.2251 9.88037L21.7227 10.2853L21.7277 10.9323Z" fill="#1971BD"/>
<path d="M22.6028 15.0192L23.2212 15.2007L23.7505 14.8294L23.7891 14.1858L23.3085 13.7539L22.6717 13.8581L22.3574 14.4227L22.6028 15.0192Z" fill="#1971BD"/>
<path d="M23.6666 19.1213L24.1943 19.1482L24.5421 18.7516L24.4497 18.2307L23.9859 17.9786L23.4986 18.1853L23.3574 18.6945L23.6666 19.1213Z" fill="#1971BD"/>
<path d="M25.4917 17.8105L25.7975 18.123L26.2328 18.0793L26.4697 17.7113L26.3302 17.2963L25.9185 17.1467L25.5455 17.3753L25.4917 17.8105Z" fill="#1971BD"/>
<path d="M26.9888 23.9238L27.2139 24.4464L27.7634 24.596L28.2222 24.2616L28.2474 23.6919L27.8172 23.3188L27.2576 23.4214L26.9888 23.9238Z" fill="#1971BD"/>
<path opacity="0.5" d="M22.7593 8.21207L23.2348 8.64898L23.8717 8.54983L24.1927 7.99026L23.9557 7.39036L23.3373 7.20215L22.8063 7.56848L22.7593 8.21207Z" fill="#1971BD"/>
<path opacity="0.8" d="M24.0986 12.7021L24.7187 12.8836L25.2464 12.5122L25.285 11.8669L24.8061 11.4351L24.1692 11.5409L23.855 12.1039L24.0986 12.7021Z" fill="#1971BD"/>
<path d="M27.478 18.6356L27.6679 18.8288L27.9368 18.802L28.083 18.5751L27.9973 18.318L27.7435 18.2256L27.5116 18.3667L27.478 18.6356Z" fill="#1971BD"/>
<path opacity="0.7" d="M30.395 14.4464L30.5849 14.6396L30.8538 14.6128L31 14.3859L30.9143 14.1288L30.6588 14.0364L30.4286 14.1775L30.395 14.4464Z" fill="#1971BD"/>
<path d="M20.8809 11.9847L21.0707 12.1797L21.3396 12.1511L21.4875 11.9242L21.4001 11.6671L21.1464 11.5747L20.9162 11.7159L20.8809 11.9847Z" fill="#1971BD"/>
<path d="M25.522 23.7761L25.7119 23.9694L25.9807 23.9425L26.1269 23.7139L26.0412 23.4585L25.7858 23.3661L25.5556 23.5072L25.522 23.7761Z" fill="#1971BD"/>
<path d="M24.6733 14.1338L24.8632 14.327L25.1321 14.3001L25.2783 14.0733L25.1926 13.8162L24.9388 13.7238L24.7069 13.8649L24.6733 14.1338Z" fill="#1971BD"/>
<path d="M18.2017 27.4292L18.3899 27.6224L18.6604 27.5955L18.8066 27.3687L18.7209 27.1116L18.4655 27.0192L18.2353 27.1603L18.2017 27.4292Z" fill="#1971BD"/>
<path d="M24.5713 20.7291L24.7612 20.9224L25.03 20.8955L25.1762 20.6686L25.0905 20.4115L24.8368 20.3191L24.6049 20.4602L24.5713 20.7291Z" fill="#1971BD"/>
<path d="M26.688 21.7613L27.0308 22.1125L27.5181 22.0638L27.7853 21.6521L27.629 21.1866L27.1669 21.0203L26.7502 21.2757L26.688 21.7613Z" fill="#1971BD"/>
<path opacity="0.4" d="M29.1348 19.3598L29.4776 19.711L29.9649 19.6623L30.2304 19.2506L30.0741 18.7851L29.6137 18.6188L29.1953 18.8742L29.1348 19.3598Z" fill="#1971BD"/>
<path opacity="0.6" d="M29.7075 17.1568L30.0503 17.508L30.5376 17.4576L30.8031 17.0459L30.6469 16.5821L30.1864 16.4141L29.768 16.6695L29.7075 17.1568Z" fill="#1971BD"/>
<path d="M22.7088 26.0227L22.5273 26.5318L22.8113 26.9906L23.3474 27.0544L23.7322 26.6747L23.6751 26.1386L23.2197 25.8479L22.7088 26.0227Z" fill="#1971BD"/>
<path d="M22.0268 23.0517L21.7378 23.6163L21.9983 24.1944L22.6133 24.3507L23.1191 23.9692L23.1342 23.3357L22.6486 22.9274L22.0268 23.0517Z" fill="#1971BD"/>
<path opacity="0.4" d="M25.4568 11.2403L25.9895 11.1579L26.2584 10.6891L26.0601 10.1884L25.5442 10.0304L25.0989 10.3345L25.0586 10.874L25.4568 11.2403Z" fill="#1971BD"/>
<path opacity="0.6" d="M28.9703 10.7866L29.5265 10.4589L29.6156 9.81869L29.1719 9.34985L28.53 9.40531L28.1704 9.94136L28.367 10.5564L28.9703 10.7866Z" fill="#1971BD"/>
<path opacity="0.4" d="M26.5656 14.1255L27.0042 14.1154L27.2697 13.7692L27.1638 13.3441L26.7655 13.1626L26.374 13.3592L26.2866 13.7894L26.5656 14.1255Z" fill="#1971BD"/>
<path opacity="0.5" d="M26.6443 8.95643L26.9148 8.95139L27.0795 8.7363L27.014 8.47416L26.7669 8.36157L26.5266 8.48424L26.4712 8.74806L26.6443 8.95643Z" fill="#1971BD"/>
<path opacity="0.6" d="M21.9612 9.29261L22.2317 9.28757L22.3964 9.07248L22.3309 8.81034L22.0855 8.69775L21.8435 8.82042L21.7881 9.08424L21.9612 9.29261Z" fill="#1971BD"/>
<path opacity="0.7" d="M28.1448 12.8937L28.4153 12.8887L28.58 12.6736L28.5145 12.4097L28.2674 12.2988L28.0271 12.4198L27.9717 12.6853L28.1448 12.8937Z" fill="#1971BD"/>
<path opacity="0.6" d="M27.0173 11.5913L27.2879 11.5846L27.4525 11.3695L27.387 11.1073L27.1417 10.9948L26.8997 11.1174L26.8442 11.3829L27.0173 11.5913Z" fill="#1971BD"/>
<path opacity="0.6" d="M28.2612 14.7473L28.5251 15.2582L29.0897 15.3724L29.5299 15.0011L29.5148 14.4264L29.0561 14.0802L28.4982 14.2214L28.2612 14.7473Z" fill="#1971BD"/>
<path d="M23.7276 24.3152L23.5142 24.9151L23.8502 25.4579L24.4821 25.5335L24.9358 25.0865L24.8686 24.453L24.3325 24.1169H24.3241L23.7208 24.3236L23.7276 24.3152Z" fill="#1971BD"/>
<path d="M20.731 25.2497L20.7562 25.895L21.2754 26.2781L21.8988 26.1101L22.1559 25.5186L21.8551 24.9489L21.22 24.8296L20.731 25.2497Z" fill="#1971BD"/>
<path d="M19.8522 26.4157L19.6304 26.8476L19.8287 27.2912L20.2992 27.4122L20.6873 27.1181L20.7008 26.6325L20.3277 26.3199L19.8522 26.4157Z" fill="#1971BD"/>
<path d="M18.5298 11.1713L19.0558 11.6569L19.7615 11.5477L20.1161 10.926L19.8523 10.2622L19.1683 10.0538L18.5802 10.4588L18.5298 11.1713Z" fill="#1971BD"/>
</svg>
